<?xml version="1.0" encoding="utf-8"?>
<!-- Generator: Adobe Illustrator 22.0.1, SVG Export Plug-In . SVG Version: 6.00 Build 0)  -->
<svg version="1.1" xmlns="http://www.w3.org/2000/svg" xmlns:xlink="http://www.w3.org/1999/xlink" x="0px" y="0px"
	 viewBox="0 0 284.8 120" style="enable-background:new 0 0 284.8 120;" xml:space="preserve">
<style type="text/css">
	.st0{fill:#fff;}
</style>
<g>
	<path class="st0" d="M127.7,51.7c2.1,0,4,0.4,5.7,1.3c1.7,0.9,3,2.2,4,3.9c1,1.8,1.5,4,1.5,6.7V79h-7.8V64.8c0-2.2-0.5-3.8-1.4-4.8
		s-2.3-1.5-4-1.5c-1.2,0-2.3,0.3-3.3,0.8c-1,0.5-1.8,1.3-2.3,2.4c-0.6,1.1-0.8,2.4-0.8,4.1V79h-7.8V52.1h7.4v7.5l-1.4-2.3
		c1-1.8,2.4-3.2,4.1-4.1C123.4,52.1,125.4,51.7,127.7,51.7z"/>
	<path class="st0" d="M142.7,58.7v-6h18.6v6H142.7z M146.9,79V51.5c0-3,0.9-5.5,2.7-7.3c1.8-1.8,4.4-2.7,7.7-2.7c1.1,0,2.2,0.1,3.3,0.4
		c1,0.2,1.9,0.6,2.7,1.1l-2,5.6c-0.4-0.3-0.9-0.5-1.5-0.7c-0.5-0.2-1.1-0.3-1.7-0.3c-1.1,0-2,0.3-2.6,1c-0.6,0.6-0.9,1.6-0.9,2.9V54
		l0.2,3.4V79H146.9z M169.7,48.3c-1.4,0-2.6-0.4-3.5-1.3c-0.9-0.8-1.4-1.9-1.4-3.1c0-1.2,0.5-2.3,1.4-3.1c0.9-0.8,2.1-1.3,3.5-1.3
		s2.6,0.4,3.5,1.2s1.3,1.8,1.3,3c0,1.3-0.4,2.4-1.3,3.2C172.3,47.9,171.2,48.3,169.7,48.3z M165.8,79V52.1h7.8V79H165.8z"/>
	<path class="st0" d="M197.1,51.7c2.1,0,4,0.4,5.7,1.3c1.7,0.9,3,2.2,4,3.9c1,1.8,1.4,4,1.4,6.7V79h-7.8V64.8c0-2.2-0.5-3.8-1.4-4.8
		s-2.3-1.5-4-1.5c-1.2,0-2.3,0.3-3.3,0.8c-1,0.5-1.8,1.3-2.3,2.4c-0.5,1.1-0.8,2.4-0.8,4.1V79h-7.8V52.1h7.5v7.5l-1.4-2.3
		c1-1.8,2.3-3.2,4.1-4.1S194.8,51.7,197.1,51.7z"/>
	<path class="st0" d="M228.9,79.4c-3.1,0-5.8-0.6-8.1-1.8c-2.3-1.2-4.1-2.8-5.4-4.9c-1.3-2.1-1.9-4.5-1.9-7.1c0-2.7,0.6-5.1,1.9-7.2
		c1.3-2.1,3-3.7,5.1-4.9c2.2-1.2,4.6-1.8,7.4-1.8c2.6,0,5,0.6,7.1,1.7c2.1,1.1,3.8,2.7,5,4.8c1.2,2.1,1.9,4.6,1.9,7.5
		c0,0.3,0,0.6,0,1c0,0.4-0.1,0.7-0.1,1.1h-21.8v-4.5h17.8l-3,1.3c0-1.4-0.3-2.6-0.9-3.6s-1.3-1.8-2.3-2.4c-1-0.6-2.2-0.9-3.5-0.9
		c-1.3,0-2.5,0.3-3.5,0.9c-1,0.6-1.8,1.4-2.4,2.5s-0.8,2.3-0.8,3.7v1.2c0,1.5,0.3,2.8,1,3.9c0.7,1.1,1.6,2,2.8,2.6s2.6,0.9,4.2,0.9
		c1.4,0,2.7-0.2,3.8-0.7c1.1-0.4,2.1-1.1,3-2L240,75c-1.2,1.4-2.8,2.5-4.6,3.2C233.5,79,231.3,79.4,228.9,79.4z"/>
</g>
<path class="st0" d="M80,31c-12.4,0-22.5,11.2-22.5,25c0,1,0.1,2,0.2,3c1.8-1.2,4-1.9,6.4-2c0-0.3,0-0.7,0-1c0-9.8,7.2-17.8,16-17.8
	s16,8,16,17.8c0,9.8-7.2,17.8-16,17.8c-1.2,0-2.4-0.2-3.6-0.5c-0.8,2.5-2.3,4.6-4.3,6.1c2.5,1,5.1,1.6,7.9,1.6
	c12.4,0,22.5-11.2,22.5-25S92.4,31,80,31z"/>
<g>
	<circle class="st0" cx="64.6" cy="69.4" r="8.2"/>
</g>
</svg>
